<svg width="24" height="24" viewBox="0 0 24 24" fill="none" xmlns="http://www.w3.org/2000/svg">
<path d="M12 2C6.48 2 2 6.48 2 12C2 17.52 6.48 22 12 22C17.52 22 22 17.52 22 12C22 6.48 17.52 2 12 2Z" fill="#2c3e50"/>
<path d="M12 7C9.24 7 7 9.24 7 12C7 14.76 9.24 17 12 17C14.76 17 17 14.76 17 12C17 9.24 14.76 7 12 7Z" fill="#2c3e50"/>
<path d="M12 1C12 1 12 1 12 1Z" fill="#27ae60"/>
<path d="M8 12C8 10.89 8.9 10 10 10C11.1 10 12 10.89 12 12C12 13.11 11.1 14 10 14C8.9 14 8 13.11 8 12Z" fill="#2c3e50"/>
<path d="M16 12C16 10.89 15.1 10 14 10C12.9 10 12 10.89 12 12C12 13.11 12.9 14 14 14C15.1 14 16 13.11 16 12Z" fill="#2c3e50"/>
</svg>