<svg width="24" height="24" viewBox="0 0 24 24" fill="none" xmlns="http://www.w3.org/2000/svg">
<path d="M14 2H6C5.46957 2 4.96086 2.21071 4.58579 2.58579C4.21071 2.96086 4 3.46957 4 4V20C4 20.5304 4.21071 21.0391 4.58579 21.4142C4.96086 21.7893 5.46957 22 6 22H14C14.5304 22 15.0391 21.7893 15.4142 21.4142C15.7893 21.0391 16 20.5304 16 20V8L12 6L8 8V20H16V4C16 3.46957 15.7893 2.96086 15.4142 2.58579C15.0391 2.21071 14.5304 2 14 2Z" fill="#2c3e50"/>
<path d="M18 14C18 15.6569 16.6569 17 15 17C13.3431 17 12 15.6569 12 14C12 12.3431 13.3431 11 15 11C16.6569 11 18 12.3431 18 14Z" fill="#e74c3c"/>
<path d="M18 17C18 17 18 17 18 17C18 17 18 17 18 17Z" fill="#2c3e50"/>
</svg>